<?xml version="1.0" encoding="utf-8"?>
<!-- Generator: Adobe Illustrator 26.4.1, SVG Export Plug-In . SVG Version: 6.00 Build 0)  -->
<svg version="1.1" id="Ebene_1" xmlns="http://www.w3.org/2000/svg" xmlns:xlink="http://www.w3.org/1999/xlink" x="0px" y="0px"
	 viewBox="0 0 48 48" style="enable-background:new 0 0 48 48;" xml:space="preserve">
<style type="text/css">
	.st0{fill:#EA2828;}
</style>
<path class="st0" d="M2,42L24,4l22,38H2z M7.2,39h33.6L24,10L7.2,39z M24.2,36.1c0.4,0,0.8-0.1,1.1-0.4s0.4-0.6,0.4-1.1
	c0-0.4-0.1-0.8-0.4-1.1s-0.6-0.4-1.1-0.4c-0.4,0-0.8,0.1-1.1,0.4c-0.3,0.3-0.4,0.6-0.4,1.1c0,0.4,0.1,0.8,0.4,1.1
	S23.8,36.1,24.2,36.1z M22.7,30.6h3V19.4h-3V30.6z"/>
</svg>
